<?xml version="1.0" standalone="no"?>
<!DOCTYPE svg PUBLIC "-//W3C//DTD SVG 20010904//EN"
 "http://www.w3.org/TR/2001/REC-SVG-20010904/DTD/svg10.dtd">
<svg version="1.0" xmlns="http://www.w3.org/2000/svg"
 width="3300.000000pt" height="2550.000000pt" viewBox="0 0 3300.000000 2550.000000"
 preserveAspectRatio="xMidYMid meet">
<metadata>
Created by potrace 1.13, written by Peter Selinger 2001-2015
</metadata>
<g transform="translate(0.000000,2550.000000) scale(0.100000,-0.100000)"
fill="#000000" stroke="none">
<path d="M10845 15480 l-260 -5 85 -29 c244 -82 455 -175 572 -252 93 -62 120
-109 161 -275 l33 -134 357 -3 c196 -1 357 -1 357 1 0 2 -31 132 -69 290 -76
317 -83 334 -169 384 l-47 28 -380 0 c-209 1 -497 -2 -640 -5z"/>
<path d="M17019 14675 c-369 -60 -727 -235 -991 -483 -70 -66 -138 -148 -173
-208 l-18 -31 56 -134 c64 -156 110 -299 132 -419 9 -47 18 -94 22 -105 3 -11
8 -326 12 -699 l7 -679 64 -60 c200 -183 444 -325 678 -393 168 -48 247 -55
632 -52 l355 3 138 265 c76 146 141 271 144 278 4 9 -101 12 -504 12 -475 0
-515 1 -587 20 -411 105 -727 435 -811 848 l-7 32 1355 0 1355 0 6 31 c11 56
6 272 -9 374 -102 699 -607 1237 -1300 1385 -130 28 -428 36 -556 15z m396
-550 c285 -46 536 -199 712 -435 47 -63 128 -208 120 -216 -12 -12 -120 -35
-198 -42 -46 -4 -476 -6 -956 -4 l-872 3 30 67 c198 439 689 704 1164 627z"/>
<path d="M18670 14351 l0 -309 52 -84 c103 -167 186 -376 229 -578 19 -90 22
-138 23 -335 l1 -230 -147 -3 -148 -3 0 -23 c0 -49 21 -234 37 -321 86 -485
393 -861 818 -1000 312 -102 762 -105 1085 -9 259 78 490 251 644 482 146 220
196 384 237 787 7 69 13 447 16 1023 l5 912 -301 0 -300 0 -3 -1017 c-3 -932
-5 -1026 -22 -1113 -32 -168 -89 -281 -197 -389 -155 -155 -324 -215 -609
-215 -196 0 -295 20 -430 87 -165 81 -302 254 -349 439 -37 144 -41 263 -41
1250 l0 958 -300 0 -300 0 0 -309z"/>
<path d="M22060 14649 c-127 -14 -234 -44 -343 -96 l-97 -47 2 -739 3 -739 70
-41 c80 -46 358 -173 486 -222 179 -69 290 -137 382 -234 79 -82 102 -135 101
-231 -1 -104 -30 -176 -99 -245 -103 -102 -229 -140 -435 -132 -141 6 -239 30
-335 80 -72 38 -202 165 -230 224 -11 24 -23 43 -26 43 -3 0 -11 -24 -18 -52
-17 -69 -107 -258 -161 -339 -24 -35 -67 -94 -97 -130 -29 -36 -53 -70 -53
-75 1 -15 127 -103 208 -145 214 -110 513 -159 841 -138 292 18 511 91 706
236 176 130 285 298 331 508 25 117 23 344 -4 446 -52 193 -176 359 -376 501
-94 67 -316 173 -496 238 -302 109 -439 180 -541 280 -79 78 -106 140 -95 222
19 144 135 253 305 289 85 17 253 7 326 -21 123 -47 225 -131 272 -225 14 -27
27 -52 29 -54 1 -1 115 74 253 169 l250 172 -16 32 c-98 192 -305 351 -543
420 -154 44 -424 65 -600 45z"/>
<path d="M11066 14624 c-354 -55 -651 -207 -912 -468 -192 -192 -303 -370
-384 -615 -89 -267 -109 -511 -65 -786 101 -630 571 -1146 1190 -1305 163 -42
271 -51 539 -48 l239 3 67 315 66 315 -325 6 c-328 6 -352 9 -481 51 -302 98
-542 348 -635 663 -33 111 -45 302 -25 423 56 350 323 661 660 770 36 12 85
27 110 34 33 9 281 13 940 17 l895 6 67 310 c37 171 67 313 67 318 1 4 -432 7
-961 6 -765 -1 -981 -4 -1052 -15z"/>
<path d="M14115 14634 c-516 -75 -950 -368 -1203 -811 -225 -394 -272 -881
-128 -1319 39 -117 146 -326 223 -434 216 -301 546 -527 908 -620 163 -42 281
-54 473 -47 313 11 585 96 832 262 46 30 85 55 87 55 1 0 3 -72 3 -160 l0
-160 320 0 321 0 -4 908 c-3 813 -5 916 -20 995 -133 666 -592 1147 -1247
1304 -92 22 -131 25 -320 28 -118 2 -228 1 -245 -1z m445 -664 c100 -25 248
-93 334 -154 75 -53 198 -181 249 -259 182 -274 212 -637 78 -932 -97 -212
-285 -400 -499 -497 -127 -58 -240 -81 -397 -81 -118 0 -155 4 -235 26 -182
47 -325 129 -456 261 -424 424 -373 1109 111 1473 112 85 263 149 412 178 105
20 290 13 403 -15z"/>
<path d="M11610 13874 c0 -12 731 -3250 741 -3280 28 -88 139 -164 240 -164
53 0 1163 73 1299 86 l65 6 1 -94 c0 -71 6 -106 22 -148 45 -112 130 -197 242
-242 43 -17 76 -22 155 -22 95 -1 104 1 175 35 174 83 272 265 240 445 -7 43
-8 69 -2 73 6 3 1917 133 4249 289 2331 156 4248 285 4261 288 18 3 22 11 22
39 l0 35 -5193 0 -5192 0 -305 1328 -305 1327 -358 3 c-196 1 -357 0 -357 -4z"/>
<path d="M21282 10855 c-122 -27 -221 -106 -279 -222 -32 -65 -37 -86 -41
-162 -5 -103 13 -180 59 -253 180 -282 598 -254 742 50 30 63 32 74 32 177 0
103 -2 114 -32 178 -59 124 -172 211 -307 236 -74 14 -94 13 -174 -4z"/>
</g>
</svg>
